<svg width="48" height="48" viewBox="0 0 48 48" fill="none" xmlns="http://www.w3.org/2000/svg">
<circle cx="24" cy="24" r="20" fill="#1769FF"/>
<path d="M18.9811 16C19.6726 16 20.3114 16.0527 20.8976 16.2107C21.4837 16.3161 21.9645 16.5335 22.3926 16.7969C22.8207 17.0603 23.1368 17.4357 23.3541 17.9165C23.5649 18.3973 23.6768 18.9834 23.6768 19.6223C23.6768 20.3665 23.5188 21.0053 23.1434 21.4861C22.8207 21.9668 22.2938 22.3949 21.6484 22.7111C22.5572 22.9745 23.2487 23.4553 23.6702 24.0941C24.0917 24.7329 24.3618 25.5298 24.3618 26.4387C24.3618 27.1829 24.2037 27.8217 23.9337 28.3552C23.6702 28.8886 23.2422 29.3694 22.7614 29.6855C22.2806 30.0083 21.6945 30.2717 21.0556 30.4297C20.4168 30.5878 19.778 30.6932 19.1391 30.6932L12 30.7064V16H18.9811ZM18.553 21.9668C19.1391 21.9668 19.6199 21.8088 19.9887 21.5388C20.3575 21.2687 20.5222 20.7945 20.5222 20.2084C20.5222 19.8857 20.4695 19.5696 20.3641 19.3588C20.2587 19.1481 20.1007 18.9834 19.8833 18.8254C19.6726 18.72 19.4553 18.6146 19.1918 18.5619C18.9284 18.5092 18.6584 18.5092 18.3422 18.5092H15.2534V21.9734C15.2534 21.9668 18.553 21.9668 18.553 21.9668ZM18.7111 28.2564C19.0338 28.2564 19.3499 28.2037 19.6199 28.151C19.8833 28.0983 20.1534 27.993 20.3641 27.8283C20.5749 27.6637 20.7395 27.5056 20.8976 27.2422C21.003 26.9787 21.1083 26.656 21.1083 26.2806C21.1083 25.5364 20.8976 25.003 20.4695 24.6276C20.0414 24.3048 19.4553 24.1468 18.7637 24.1468H15.2534V28.2498H18.7111V28.2564Z" fill="white"/>
<path d="M28.9983 28.2041C29.4264 28.6322 30.0652 28.843 30.9148 28.843C31.5009 28.843 32.0344 28.6849 32.4625 28.4149C32.8906 28.0922 33.154 27.776 33.2594 27.4533H35.8674C35.4393 28.731 34.8005 29.6399 33.9509 30.226C33.1013 30.7595 32.0871 31.0756 30.8621 31.0756C30.0125 31.0756 29.2617 30.9175 28.5702 30.6475C27.8787 30.3841 27.3452 30.0087 26.8644 29.4752C26.3837 28.9944 26.0149 28.4083 25.7975 27.7168C25.5341 27.0252 25.4221 26.281 25.4221 25.4249C25.4221 24.628 25.5275 23.8772 25.7975 23.1857C26.0675 22.4941 26.4364 21.908 26.9171 21.3745C27.3979 20.8938 27.984 20.4657 28.6229 20.2022C29.3144 19.9388 30.0059 19.7741 30.8621 19.7741C31.7709 19.7741 32.5678 19.9322 33.2594 20.3076C33.9509 20.683 34.4843 21.1045 34.9124 21.7433C35.3405 22.3295 35.6566 23.021 35.874 23.7652C35.9793 24.5094 36.032 25.2602 35.9793 26.1098H28.2541C28.2541 26.9791 28.5702 27.776 28.9983 28.2041ZM32.3571 22.6061C31.9817 22.2307 31.3955 22.0199 30.704 22.0199C30.2233 22.0199 29.8544 22.1253 29.5317 22.2834C29.209 22.4414 28.9983 22.6588 28.7875 22.8695C28.5768 23.0803 28.4648 23.3503 28.4121 23.6137C28.3594 23.8772 28.3068 24.0945 28.3068 24.3053H33.1013C32.9959 23.515 32.7259 22.9815 32.3571 22.6061ZM27.6679 17.0146H33.6348V18.4504H27.6679V17.0146Z" fill="white"/>
</svg>
