<svg width="29" height="29" viewBox="0 0 29 29" fill="none" xmlns="http://www.w3.org/2000/svg">
<g clip-path="url(#clip0_17_164)">
<path d="M25.7778 4.83301H3.2222C2.7949 4.83301 2.38511 5.00275 2.08297 5.30489C1.78083 5.60703 1.61108 6.01683 1.61108 6.44412V22.5552C1.61108 22.9825 1.78083 23.3923 2.08297 23.6945C2.38511 23.9966 2.7949 24.1663 3.2222 24.1663H25.7778C26.205 24.1663 26.6148 23.9966 26.917 23.6945C27.2191 23.3923 27.3889 22.9825 27.3889 22.5552V6.44412C27.3889 6.01683 27.2191 5.60703 26.917 5.30489C26.6148 5.00275 26.205 4.83301 25.7778 4.83301ZM24.5372 22.5552H4.55942L10.1983 16.723L9.03831 15.6033L3.2222 21.6208V7.66856L13.2353 17.6333C13.5371 17.9334 13.9455 18.1018 14.3711 18.1018C14.7967 18.1018 15.2051 17.9334 15.5069 17.6333L25.7778 7.41884V21.5161L19.8489 15.5872L18.713 16.723L24.5372 22.5552ZM4.27747 6.44412H24.4728L14.3711 16.4894L4.27747 6.44412Z" fill="white"/>
</g>
<defs>
<clipPath id="clip0_17_164">
<rect width="29" height="29" fill="white"/>
</clipPath>
</defs>
</svg>
