<svg width="31" height="31" viewBox="0 0 31 31" fill="none" xmlns="http://www.w3.org/2000/svg">
<path d="M26.2985 19.5557C24.9308 19.3869 23.5728 19.1476 22.2298 18.8388C21.9019 18.7293 21.5513 18.7062 21.2118 18.7718C20.8724 18.8374 20.5557 18.9895 20.2923 19.2134C19.95 19.5622 18.9618 20.5374 17.935 21.5449C14.2558 19.7363 11.2804 16.7585 9.47455 13.078C10.4756 12.0511 11.4121 11.0695 11.7931 10.7272C12.017 10.4638 12.1691 10.147 12.2347 9.80759C12.3004 9.46817 12.2773 9.11755 12.1677 8.78967C11.8585 7.44457 11.6192 6.08434 11.4508 4.71446C11.4328 4.54002 11.3794 4.37107 11.2939 4.21793C11.2085 4.06479 11.0927 3.93065 10.9537 3.82369C10.8148 3.71673 10.6555 3.6392 10.4855 3.59581C10.3156 3.55243 10.1386 3.5441 9.96539 3.57134H4.46289C4.23576 3.59184 4.02314 3.69182 3.86248 3.85367C3.70181 4.01551 3.60339 4.22885 3.58455 4.45613C3.22935 9.42259 5.99997 14.7378 6.56185 15.7582V15.797L6.63935 15.9455C8.65069 19.4339 11.5468 22.33 15.0352 24.3413V24.3413L15.3193 24.5028C16.611 25.1874 21.7454 27.7707 26.5439 27.4155C26.7735 27.3996 26.9899 27.3025 27.1544 27.1415C27.3189 26.9806 27.4207 26.7663 27.4416 26.5372V21.0411C27.4689 20.8679 27.4605 20.6909 27.4172 20.521C27.3738 20.3511 27.2962 20.1917 27.1893 20.0528C27.0823 19.9138 26.9482 19.798 26.795 19.7126C26.6419 19.6271 26.473 19.5738 26.2985 19.5557Z" stroke="white" stroke-width="0.645833" stroke-linecap="round" stroke-linejoin="round"/>
</svg>
