<svg width="105" height="98" viewBox="0 0 105 98" fill="none" xmlns="http://www.w3.org/2000/svg">
<path d="M1.688 2.232H8.472C9.432 2.232 10.2 2.25333 10.776 2.296C11.3733 2.33867 12.0027 2.43467 12.664 2.584C13.3467 2.73333 13.8907 2.95733 14.296 3.256C14.7227 3.55467 15.0853 3.96 15.384 4.472C15.6613 4.96266 15.8 5.58133 15.8 6.328V10.648C15.8 12.376 15.128 13.624 13.784 14.392C12.4613 15.1387 10.4987 15.512 7.896 15.512H4.792V23H1.688V2.232ZM8.312 13.56C9.656 13.56 10.7333 13.3147 11.544 12.824C12.3547 12.3333 12.76 11.5547 12.76 10.488V6.712C12.76 6.136 12.6107 5.66667 12.312 5.304C12.0133 4.92 11.5867 4.65333 11.032 4.504C10.4987 4.376 10.0507 4.29067 9.688 4.248C9.32533 4.20533 8.84533 4.184 8.248 4.184H4.76V13.56H8.312ZM19.746 0.599998H22.626V9.4C22.9247 7.928 24.6207 7.192 27.714 7.192C29.698 7.192 31.0847 7.55467 31.874 8.28C32.6847 8.984 33.09 10.104 33.09 11.64V23H30.21V11.832C30.21 11.4267 30.178 11.096 30.114 10.84C30.05 10.584 29.922 10.328 29.73 10.072C29.3033 9.53867 28.354 9.272 26.882 9.272C25.7087 9.272 24.8127 9.35733 24.194 9.528C23.5967 9.67733 23.1807 9.93333 22.946 10.296C22.7327 10.6587 22.626 11.1707 22.626 11.832V23H19.746V0.599998ZM44.6498 23.32C43.2844 23.32 42.2604 23.2667 41.5778 23.16C40.8951 23.0747 40.2124 22.872 39.5298 22.552C38.8258 22.232 38.3138 21.72 37.9938 21.016C37.6738 20.2907 37.5138 19.32 37.5138 18.104V12.728C37.5138 11.768 37.6311 10.9253 37.8658 10.2C38.1004 9.47467 38.4098 8.90933 38.7938 8.504C39.1138 8.14133 39.5938 7.864 40.2338 7.672C40.8951 7.45867 41.5671 7.32 42.2498 7.256C43.0178 7.21333 43.8178 7.192 44.6498 7.192C45.7591 7.192 46.5911 7.224 47.1458 7.288C47.7218 7.33067 48.3298 7.43733 48.9698 7.608C49.6311 7.8 50.1431 8.088 50.5058 8.472C50.8684 8.856 51.1778 9.41067 51.4338 10.136C51.6684 10.8827 51.7858 11.7467 51.7858 12.728V18.104C51.7858 19.9173 51.3698 21.24 50.5378 22.072C50.1964 22.4133 49.7058 22.68 49.0658 22.872C48.4258 23.064 47.7644 23.192 47.0818 23.256C46.2711 23.2987 45.4604 23.32 44.6498 23.32ZM44.6498 21.432C45.5458 21.432 46.1964 21.4107 46.6018 21.368C47.0071 21.3253 47.4018 21.208 47.7858 21.016C48.1698 20.8453 48.4364 20.568 48.5858 20.184C48.7564 19.7787 48.8418 19.224 48.8418 18.52V12.248C48.8418 11.288 48.7244 10.5947 48.4898 10.168C48.2551 9.72 47.8498 9.432 47.2738 9.304C46.7191 9.15467 45.8444 9.08 44.6498 9.08C43.4551 9.08 42.5698 9.15467 41.9938 9.304C41.4391 9.432 41.0444 9.72 40.8098 10.168C40.5751 10.5947 40.4578 11.288 40.4578 12.248V18.52C40.4578 19.224 40.5324 19.7787 40.6818 20.184C40.8524 20.568 41.1298 20.8453 41.5138 21.016C41.8978 21.208 42.2924 21.3253 42.6978 21.368C43.1031 21.4107 43.7538 21.432 44.6498 21.432ZM62.7733 23.32C61.4506 23.32 60.4159 23.1813 59.6693 22.904C58.9226 22.6053 58.3786 22.1147 58.0373 21.432C57.7173 20.728 57.5573 19.7467 57.5573 18.488V9.4H54.1013V7.512H57.5573V2.712H60.4693V7.512H66.0053V9.4H60.4693V18.648C60.4693 19.416 60.5546 19.992 60.7253 20.376C60.9173 20.76 61.2373 21.0373 61.6853 21.208C62.1546 21.3573 62.8266 21.432 63.7013 21.432C63.9786 21.432 64.7466 21.3467 66.0053 21.176V23.064C64.9173 23.2347 63.8399 23.32 62.7733 23.32ZM75.7123 23.32C74.3469 23.32 73.3229 23.2667 72.6403 23.16C71.9576 23.0747 71.2749 22.872 70.5923 22.552C69.8883 22.232 69.3763 21.72 69.0563 21.016C68.7363 20.2907 68.5763 19.32 68.5763 18.104V12.728C68.5763 11.768 68.6936 10.9253 68.9283 10.2C69.1629 9.47467 69.4723 8.90933 69.8563 8.504C70.1763 8.14133 70.6563 7.864 71.2963 7.672C71.9576 7.45867 72.6296 7.32 73.3123 7.256C74.0803 7.21333 74.8803 7.192 75.7123 7.192C76.8216 7.192 77.6536 7.224 78.2083 7.288C78.7843 7.33067 79.3923 7.43733 80.0323 7.608C80.6936 7.8 81.2056 8.088 81.5683 8.472C81.9309 8.856 82.2403 9.41067 82.4963 10.136C82.7309 10.8827 82.8483 11.7467 82.8483 12.728V18.104C82.8483 19.9173 82.4323 21.24 81.6003 22.072C81.2589 22.4133 80.7683 22.68 80.1283 22.872C79.4883 23.064 78.8269 23.192 78.1443 23.256C77.3336 23.2987 76.5229 23.32 75.7123 23.32ZM75.7123 21.432C76.6083 21.432 77.2589 21.4107 77.6643 21.368C78.0696 21.3253 78.4643 21.208 78.8483 21.016C79.2323 20.8453 79.4989 20.568 79.6483 20.184C79.8189 19.7787 79.9043 19.224 79.9043 18.52V12.248C79.9043 11.288 79.7869 10.5947 79.5523 10.168C79.3176 9.72 78.9123 9.432 78.3363 9.304C77.7816 9.15467 76.9069 9.08 75.7123 9.08C74.5176 9.08 73.6323 9.15467 73.0563 9.304C72.5016 9.432 72.1069 9.72 71.8723 10.168C71.6376 10.5947 71.5203 11.288 71.5203 12.248V18.52C71.5203 19.224 71.5949 19.7787 71.7443 20.184C71.9149 20.568 72.1923 20.8453 72.5763 21.016C72.9603 21.208 73.3549 21.3253 73.7603 21.368C74.1656 21.4107 74.8163 21.432 75.7123 21.432ZM9.784 60.32C3.96 60.32 1.048 58.4427 1.048 54.688V44.832C1.048 40.864 3.96 38.88 9.784 38.88C11.768 38.88 13.6667 39.0827 15.48 39.488V41.792C13.432 41.28 11.5547 41.024 9.848 41.024C9.016 41.024 8.29067 41.0773 7.672 41.184C7.05333 41.2693 6.456 41.4293 5.88 41.664C4.64267 42.1973 4.024 43.2427 4.024 44.8V54.528C4.024 56.9173 6.008 58.112 9.976 58.112C11.6827 58.112 13.56 57.856 15.608 57.344V59.712C13.7947 60.1173 11.8533 60.32 9.784 60.32ZM19.5585 44.512H22.2785V47.04C22.2785 46.5493 22.4918 46.0907 22.9185 45.664C23.3452 45.216 23.8892 44.864 24.5505 44.608C25.2118 44.3307 25.8625 44.192 26.5025 44.192H27.9105V46.656H26.3105C24.9452 46.656 23.9532 46.8373 23.3345 47.2C22.7372 47.5413 22.4385 48.1707 22.4385 49.088V60H19.5585V44.512ZM37.3053 60.32C32.5693 60.32 30.2013 58.7413 30.2013 55.584V49.472C30.2013 47.5947 30.7346 46.2507 31.8013 45.44C32.8893 44.608 34.6386 44.192 37.0493 44.192C39.3319 44.192 40.9746 44.5867 41.9773 45.376C43.0013 46.1653 43.5133 47.5307 43.5133 49.472V52.896H33.1133V55.232C33.1133 56.2987 33.4866 57.0667 34.2333 57.536C34.9799 58.0053 36.1319 58.24 37.6892 58.24C39.1613 58.24 40.8999 57.984 42.9053 57.472V59.68C40.9426 60.1067 39.0759 60.32 37.3053 60.32ZM40.6333 51.008V48.576C40.6333 47.6373 40.3453 46.9973 39.7693 46.656C39.2146 46.2933 38.2546 46.112 36.8893 46.112C35.5666 46.112 34.6066 46.2933 34.0093 46.656C33.4119 46.9973 33.1133 47.6373 33.1133 48.576V51.008H40.6333ZM52.6703 60.32C51.1983 60.32 50.0569 60.1813 49.2463 59.904C48.4569 59.6267 47.8809 59.136 47.5182 58.432C47.1769 57.728 47.0063 56.7147 47.0063 55.392C47.0063 54.2187 47.1663 53.312 47.4863 52.672C47.8276 52.0107 48.3929 51.5413 49.1823 51.264C49.9929 50.9867 51.1343 50.848 52.6063 50.848H57.2463V48.384C57.2463 47.808 57.1289 47.3707 56.8943 47.072C56.6809 46.752 56.3076 46.528 55.7743 46.4C55.2623 46.272 54.5049 46.208 53.5023 46.208C51.9023 46.208 50.1316 46.336 48.1903 46.592V44.48C50.3023 44.288 52.2116 44.192 53.9183 44.192C55.7103 44.192 57.0329 44.3307 57.8863 44.608C58.7396 44.864 59.3263 45.3227 59.6463 45.984C59.9663 46.6453 60.1263 47.6693 60.1263 49.056V60H57.3423V58.528C57.1076 59.7227 55.5503 60.32 52.6703 60.32ZM53.1503 58.432C54.1956 58.432 55.0809 58.3573 55.8063 58.208C56.7663 58.016 57.2463 57.568 57.2463 56.864V52.64H52.7983C51.8809 52.64 51.2196 52.7147 50.8143 52.864C50.4089 52.992 50.1423 53.248 50.0143 53.632C49.8863 54.016 49.8223 54.6347 49.8223 55.488C49.8223 56.256 49.8969 56.8533 50.0463 57.28C50.1956 57.6853 50.4623 57.984 50.8463 58.176C51.2303 58.3467 51.8063 58.432 52.5743 58.432H53.1503ZM71.617 60.32C70.2943 60.32 69.2597 60.1813 68.513 59.904C67.7663 59.6053 67.2223 59.1147 66.881 58.432C66.561 57.728 66.401 56.7467 66.401 55.488V46.4H62.945V44.512H66.401V39.712H69.313V44.512H74.849V46.4H69.313V55.648C69.313 56.416 69.3983 56.992 69.569 57.376C69.761 57.76 70.081 58.0373 70.529 58.208C70.9983 58.3573 71.6703 58.432 72.545 58.432C72.8223 58.432 73.5903 58.3467 74.849 58.176V60.064C73.761 60.2347 72.6837 60.32 71.617 60.32ZM84.556 60.32C83.1907 60.32 82.1667 60.2667 81.484 60.16C80.8013 60.0747 80.1187 59.872 79.436 59.552C78.732 59.232 78.22 58.72 77.9 58.016C77.58 57.2907 77.42 56.32 77.42 55.104V49.728C77.42 48.768 77.5373 47.9253 77.772 47.2C78.0067 46.4747 78.316 45.9093 78.7 45.504C79.02 45.1413 79.5 44.864 80.14 44.672C80.8013 44.4587 81.4733 44.32 82.156 44.256C82.924 44.2133 83.724 44.192 84.556 44.192C85.6653 44.192 86.4973 44.224 87.052 44.288C87.628 44.3307 88.236 44.4373 88.876 44.608C89.5373 44.8 90.0493 45.088 90.412 45.472C90.7747 45.856 91.084 46.4107 91.34 47.136C91.5747 47.8827 91.692 48.7467 91.692 49.728V55.104C91.692 56.9173 91.276 58.24 90.444 59.072C90.1027 59.4133 89.612 59.68 88.972 59.872C88.332 60.064 87.6707 60.192 86.988 60.256C86.1773 60.2987 85.3667 60.32 84.556 60.32ZM84.556 58.432C85.452 58.432 86.1027 58.4107 86.508 58.368C86.9133 58.3253 87.308 58.208 87.692 58.016C88.076 57.8453 88.3427 57.568 88.492 57.184C88.6627 56.7787 88.748 56.224 88.748 55.52V49.248C88.748 48.288 88.6307 47.5947 88.396 47.168C88.1613 46.72 87.756 46.432 87.18 46.304C86.6253 46.1547 85.7507 46.08 84.556 46.08C83.3613 46.08 82.476 46.1547 81.9 46.304C81.3453 46.432 80.9507 46.72 80.716 47.168C80.4813 47.5947 80.364 48.288 80.364 49.248V55.52C80.364 56.224 80.4387 56.7787 80.588 57.184C80.7587 57.568 81.036 57.8453 81.42 58.016C81.804 58.208 82.1987 58.3253 82.604 58.368C83.0093 58.4107 83.66 58.432 84.556 58.432ZM96.1835 44.512H98.9035V47.04C98.9035 46.5493 99.1168 46.0907 99.5435 45.664C99.9702 45.216 100.514 44.864 101.176 44.608C101.837 44.3307 102.488 44.192 103.128 44.192H104.536V46.656H102.936C101.57 46.656 100.578 46.8373 99.9595 47.2C99.3622 47.5413 99.0635 48.1707 99.0635 49.088V60H96.1835V44.512ZM7.672 97.32C5.90133 97.32 3.78933 97.1493 1.336 96.808V94.216C3.81067 94.7493 5.98667 95.016 7.864 95.016C9.44267 95.016 10.5947 94.8453 11.32 94.504C12.0453 94.1413 12.408 93.48 12.408 92.52V89.832C12.408 88.936 12.152 88.3067 11.64 87.944C11.128 87.5813 10.232 87.4 8.952 87.4H6.52C4.49333 87.4 3.05333 86.9947 2.2 86.184C1.34667 85.3733 0.92 84.1147 0.92 82.408V80.744C0.92 79.6133 1.16533 78.696 1.656 77.992C2.168 77.288 3.01067 76.7653 4.184 76.424C5.37867 76.0827 7.01067 75.912 9.08 75.912C10.4667 75.912 12.248 76.0293 14.424 76.264V78.6C11.992 78.2373 10.136 78.056 8.856 78.056C6.872 78.056 5.56 78.248 4.92 78.632C4.25867 79.0373 3.928 79.7093 3.928 80.648V83.016C3.928 83.7413 4.184 84.2747 4.696 84.616C5.22933 84.936 6.136 85.096 7.416 85.096H9.912C11.3413 85.096 12.4507 85.2667 13.24 85.608C14.0507 85.9493 14.616 86.472 14.936 87.176C15.2773 87.8587 15.448 88.7867 15.448 89.96V91.464C15.448 92.936 15.1707 94.0987 14.616 94.952C14.0827 95.8053 13.2507 96.4133 12.12 96.776C10.9893 97.1387 9.50667 97.32 7.672 97.32ZM26.2108 97.32C24.8881 97.32 23.8534 97.1813 23.1068 96.904C22.3601 96.6053 21.8161 96.1147 21.4748 95.432C21.1548 94.728 20.9948 93.7467 20.9948 92.488V83.4H17.5388V81.512H20.9948V76.712H23.9068V81.512H29.4428V83.4H23.9068V92.648C23.9068 93.416 23.9921 93.992 24.1628 94.376C24.3548 94.76 24.6748 95.0373 25.1228 95.208C25.5921 95.3573 26.2641 95.432 27.1388 95.432C27.4161 95.432 28.1841 95.3467 29.4428 95.176V97.064C28.3548 97.2347 27.2774 97.32 26.2108 97.32ZM37.9658 97.32C35.9818 97.32 34.5844 96.968 33.7738 96.264C32.9844 95.5387 32.5898 94.408 32.5898 92.872V81.512H35.4698V92.712C35.4698 93.1173 35.5018 93.448 35.5658 93.704C35.6511 93.9387 35.7898 94.184 35.9818 94.44C36.3658 94.9947 37.3044 95.272 38.7978 95.272C40.3764 95.272 41.4858 95.1227 42.1258 94.824C42.7444 94.5253 43.0538 93.9813 43.0538 93.192V81.512H45.9338V97H43.0538V95.112C42.7764 96.584 41.0804 97.32 37.9658 97.32ZM56.4695 97.32C54.9335 97.32 53.7282 97.1707 52.8535 96.872C51.9788 96.552 51.3388 96.04 50.9335 95.336C50.5495 94.632 50.3575 93.6507 50.3575 92.392V85.576C50.3575 84.0187 50.8375 82.8987 51.7975 82.216C52.7788 81.5333 54.3895 81.192 56.6295 81.192C57.9735 81.192 59.1255 81.3627 60.0855 81.704C61.0668 82.0453 61.5682 82.536 61.5895 83.176H61.6535L61.5895 79.24V74.6H64.4695V97H61.6535V95.176C61.6535 95.752 61.1948 96.2427 60.2775 96.648C59.3602 97.096 58.0908 97.32 56.4695 97.32ZM57.0775 95.336C58.6775 95.336 59.8295 95.1547 60.5335 94.792C61.2375 94.4293 61.5895 93.8107 61.5895 92.936V85.288C61.5895 83.9013 60.1708 83.208 57.3335 83.208C55.6268 83.208 54.5175 83.336 54.0055 83.592C53.4722 83.848 53.2055 84.4133 53.2055 85.288V92.936C53.2055 93.8107 53.4935 94.4293 54.0695 94.792C54.6668 95.1547 55.6695 95.336 57.0775 95.336ZM69.2148 75.912H72.0948V78.92H69.2148V75.912ZM69.2148 81.512H72.0948V97H69.2148V81.512ZM83.6498 97.32C82.2844 97.32 81.2604 97.2667 80.5778 97.16C79.8951 97.0747 79.2124 96.872 78.5298 96.552C77.8258 96.232 77.3138 95.72 76.9938 95.016C76.6738 94.2907 76.5138 93.32 76.5138 92.104V86.728C76.5138 85.768 76.6311 84.9253 76.8658 84.2C77.1004 83.4747 77.4098 82.9093 77.7938 82.504C78.1138 82.1413 78.5938 81.864 79.2338 81.672C79.8951 81.4587 80.5671 81.32 81.2498 81.256C82.0178 81.2133 82.8178 81.192 83.6498 81.192C84.7591 81.192 85.5911 81.224 86.1458 81.288C86.7218 81.3307 87.3298 81.4373 87.9698 81.608C88.6311 81.8 89.1431 82.088 89.5058 82.472C89.8684 82.856 90.1778 83.4107 90.4338 84.136C90.6684 84.8827 90.7858 85.7467 90.7858 86.728V92.104C90.7858 93.9173 90.3698 95.24 89.5378 96.072C89.1964 96.4133 88.7058 96.68 88.0658 96.872C87.4258 97.064 86.7644 97.192 86.0818 97.256C85.2711 97.2987 84.4604 97.32 83.6498 97.32ZM83.6498 95.432C84.5458 95.432 85.1964 95.4107 85.6018 95.368C86.0071 95.3253 86.4018 95.208 86.7858 95.016C87.1698 94.8453 87.4364 94.568 87.5858 94.184C87.7564 93.7787 87.8418 93.224 87.8418 92.52V86.248C87.8418 85.288 87.7244 84.5947 87.4898 84.168C87.2551 83.72 86.8498 83.432 86.2738 83.304C85.7191 83.1547 84.8444 83.08 83.6498 83.08C82.4551 83.08 81.5698 83.1547 80.9938 83.304C80.4391 83.432 80.0444 83.72 79.8098 84.168C79.5751 84.5947 79.4578 85.288 79.4578 86.248V92.52C79.4578 93.224 79.5324 93.7787 79.6818 94.184C79.8524 94.568 80.1298 94.8453 80.5138 95.016C80.8978 95.208 81.2924 95.3253 81.6978 95.368C82.1031 95.4107 82.7538 95.432 83.6498 95.432Z" fill="white"/>
</svg>
